<?xml version="1.0" encoding="UTF-8"?>
<svg version="1.1" viewBox="0 0 1600 1600" width="1280" height="1280" xmlns="http://www.w3.org/2000/svg">
<path transform="translate(784 83.9)" d="m0 0c1.18-9.57e-4 2.37-0.00191 3.59-0.0029 2.5-6.79e-4 5 0.00116 7.5 0.00534 3.8 0.00533 7.6 5.49e-5 11.4-0.00635 2.44 6.61e-4 4.88 0.00194 7.32 0.00391 1.12-0.00202 2.25-0.00405 3.41-0.00613 6.07 0.0178 12 0.277 18.1 0.926 3.7 0.331 7.37 0.193 11.1 0.0883 6.64-0.0932 12.6 0.521 19.1 1.92 5.44 1.14 10.8 1.77 16.4 2.27 6.71 0.614 13.3 1.37 20 2.47 4.5 0.741 9.01 1.37 13.5 1.89 11.4 1.35 11.4 1.35 15.1 3.13 3.7 1.67 6.76 1.83 10.8 2.12 3.44 0.444 6.28 1.89 9.42 3.31 2.33 0.344 4.67 0.675 7 1 2.68 0.577 5.34 1.25 8 1.94 0.673 0.17 1.35 0.339 2.04 0.514 4.34 1.1 8.65 2.3 13 3.55 1.73 0.464 1.73 0.464 3.5 0.938 2.94 0.894 5.65 1.98 8.45 3.22 5.83 2.4 11.9 4.21 18 6.04 7.33 2.23 14.4 4.61 21.4 7.7 2.84 1.19 5.72 2.14 8.65 3.11 1.41 0.58 2.8 1.18 4.19 1.81 1.17 0.53 1.17 0.53 2.36 1.07 0.808 0.369 1.62 0.737 2.45 1.12 0.777 0.348 1.55 0.696 2.36 1.05 14 6.31 27.9 13 41.6 19.9 1.46 0.73 2.92 1.46 4.38 2.19l1.81 0.91c1.33 0.662 2.66 1.31 4 1.96 0.722 0.352 1.44 0.704 2.19 1.07 0.647 0.312 1.29 0.624 1.96 0.945 1.66 0.93 1.66 0.93 3.66 2.93 1.94 1.07 3.9 2.11 5.88 3.12 5.72 3.03 11.1 6.38 16.4 10.1 2.83 1.85 5.73 3.3 8.75 4.8 1.58 0.969 3.15 1.97 4.69 3 1.12 0.742 1.12 0.742 2.26 1.5 1.89 1.38 3.4 2.85 5.05 4.5 1.6 0.885 3.2 1.77 4.8 2.65 3.84 2.36 7.35 5.17 10.9 7.9 4.35 3.29 8.85 6.34 13.4 9.4 3.93 2.76 7.53 5.64 10.9 9.04 1.26 0.996 2.53 1.97 3.81 2.94 9.38 7.23 18.2 15.1 27 23.1 1.96 1.76 3.96 3.46 5.99 5.14 2.22 1.88 4.1 3.81 5.94 6.06 2.14 2.89 2.14 2.89 5.25 4.75v2c1.32 0.66 2.64 1.32 4 2v2c1.32 0.66 2.64 1.32 4 2v2c0.578 0.248 1.16 0.495 1.75 0.75 2.58 1.43 4.31 3.03 6.25 5.25v2c0.99 0.33 1.98 0.66 3 1 1.79 1.74 1.79 1.74 3.62 3.88 0.611 0.699 1.22 1.4 1.85 2.12 1.52 2.01 1.52 2.01 2.52 5.01 1.32 0.69 2.66 1.35 4 2 1.61 1.56 1.61 1.56 3.19 3.44 0.599 0.708 1.2 1.42 1.82 2.14 2.98 3.61 5.96 7.22 8.91 10.9 1.69 2.07 3.41 4.1 5.15 6.12 1.94 2.44 1.94 2.44 1.94 4.44h2c1.36 1.68 2.64 3.42 3.88 5.19 2.61 3.7 5.28 7.29 8.12 10.8 9.95 13.2 19.2 27 28 41 0.578 0.914 1.16 1.83 1.75 2.77 1.25 2.23 1.25 2.23 1.25 4.23h2c0.51 0.947 0.51 0.947 1.03 1.91 4.84 8.94 9.87 17.8 15 26.5 2.05 3.59 3.91 7.27 5.74 11 0.703 1.42 1.41 2.83 2.11 4.25 0.355 0.717 0.71 1.43 1.08 2.17 1.02 2.05 2.05 4.1 3.08 6.14 13.1 26 13.1 26 18 39 0.24 0.634 0.48 1.27 0.727 1.92 0.479 1.27 0.956 2.55 1.43 3.82 2.49 6.64 5.02 13.3 7.72 19.8 5.43 13.6 9.89 27.4 13.6 41.5 0.689 2.6 1.41 5.19 2.13 7.79 4.35 16.1 8.57 32.4 11 48.9 0.341 2.13 0.824 4.16 1.36 6.24 3.13 14.5 4.59 29.3 6 44h1c1.4 18.6 2.25 37.1 2.69 55.7 0.0246 0.964 0.0493 1.93 0.0747 2.92 0.244 9.77 0.422 19.4-0.63 29.1-0.324 2.32-0.324 2.32 0.868 4.29-0.33 0.66-0.66 1.32-1 2l1.81 0.312c2.47 0.776 3.51 1.76 5.19 3.69-0.33 0.66-0.66 1.32-1 2-1.32-0.99-2.64-1.98-4-3-0.854 7.75 1.9 12.2 5.88 18.7 1.2 2.06 2.4 4.12 3.6 6.18 0.598 1.03 1.2 2.06 1.81 3.12 26.3 46.2 34.4 106 20.8 158-9.4 33.5-27.1 63.2-55.9 83.5-3.27 2.32-4.48 3.71-5.26 7.6 35.6-20.2 61.9-67.3 72.6-105 1.27-4.85 2.4-9.72 3.43-14.6 0.243-1.15 0.243-1.15 0.492-2.32 0.883-4.22 1.72-8.44 2.51-12.7h1c-0.901 39.6-22.7 81.5-49.2 110-1.99 2.12-1.99 2.12-3.85 5.06h-2c-0.266 0.592-0.531 1.18-0.805 1.79-3.86 7.14-12.6 14.4-19.7 18.1-2.45 1.76-3.34 2.75-4.24 5.66-0.437 3.25-0.663 6.46-0.825 9.74-0.131 1.83-0.131 1.83-0.265 3.69-0.185 2.62-0.358 5.23-0.512 7.85-0.243 4.12-0.534 8.23-0.837 12.3-0.0502 0.682-0.1 1.36-0.152 2.07-0.102 1.38-0.203 2.75-0.305 4.13-0.152 2.06-0.299 4.12-0.447 6.17-0.781 10.8-1.87 21.6-3.32 32.3-0.102 0.763-0.205 1.53-0.31 2.31-0.614 4.53-1.26 9.06-1.92 13.6-0.346 2.37-0.686 4.74-1.03 7.11-7.92 55-19 110-36.6 162-0.251 0.755-0.501 1.51-0.759 2.29-8.21 24.6-8.21 24.6-12 28.4-2.33 0.638-2.33 0.638-5.25 1.18-1.09 0.206-2.17 0.411-3.29 0.623-1.14 0.208-2.28 0.416-3.46 0.631-1.62 0.306-1.62 0.306-3.27 0.619-4.98 0.931-9.95 1.84-15 2.57-11.2 1.66-21.6 4.56-32.3 8.19-1.56 0.515-3.11 1.03-4.67 1.54-4.6 1.52-9.19 3.08-13.8 4.65-1.14 0.391-1.14 0.391-2.31 0.79-12.2 4.18-12.2 4.18-24 9.34-0.776 0.373-1.55 0.747-2.35 1.13-20.8 10.2-38.9 23.6-56.3 38.7 0.17 0.536 0.34 1.07 0.516 1.62 1.65 5.34 3.15 10.7 4.55 16.1 0.321 1.23 0.642 2.46 0.973 3.73 2.93 13 3.37 25.7 3.34 39-2.11e-4 0.941-4.23e-4 1.88-6.41e-4 2.85-0.0575 25.8-2.17 53.1-10.4 77.7 0.839 0.13 0.839 0.13 1.7 0.262 10 1.75 19.3 5.31 28.5 9.54 11.6 5.36 23.6 9.38 35.8 13.2 1.06 0.335 2.13 0.67 3.22 1.01 3.17 0.992 6.35 1.96 9.53 2.92 0.951 0.295 1.9 0.589 2.88 0.893 10.2 3 19.8 3.74 30.3 2.04 0.885-0.137 1.77-0.274 2.68-0.415 23.1-2.97 23.1-2.97 41.3-16 3.35-5.32 4.09-9.25 3.62-15.5-0.12-5.34-0.12-5.34 2.26-8.14 3.17-2.23 5.55-3.87 9.52-3.83 3.91 1.43 6.84 3.8 10.1 6.35 1.06 0.811 1.06 0.811 2.14 1.64 2.15 1.65 4.29 3.32 6.42 4.99 0.601 0.468 1.2 0.936 1.82 1.42 2.83 2.21 5.65 4.43 8.47 6.66 3.53 2.79 7.09 5.53 10.6 8.27 2.33 1.8 4.64 3.63 6.96 5.45 2.37 1.87 4.72 3.61 7.22 5.3 3.91 2.82 5.61 4.57 6.64 9.37 0.421 4.18 0.336 8.32 0.25 12.5v16h-1197c-2.96-13-5.88-26-8.45-39-0.304-1.53-0.608-3.06-0.913-4.6-0.637-3.2-1.27-6.41-1.91-9.61-1.66-8.41-3.34-16.8-5.02-25.2-0.164-0.825-0.329-1.65-0.498-2.5-2.54-12.7-5.14-25.4-7.84-38.1-16.1-75.8-31.3-152-41.8-229-0.12-0.858-0.24-1.72-0.364-2.6-3.73-26.9-4.56-53.9-4.46-81 0.0081-2.34 0.013-4.67 0.0173-7.01 0.0506-23.8 0.41-47.6 2.24-71.4 0.0655-0.87 0.131-1.74 0.199-2.64 1.59-21.1 3.6-42.1 6.3-63.1 0.0956-0.756 0.191-1.51 0.29-2.29 1.43-11.2 3.62-22.1 6.21-33 0.166-0.717 0.333-1.43 0.504-2.17 2.01-8.64 4.44-15.5 9.5-22.8 16.6-23.7 16.6-23.7 24-51h-2c-0.22-0.843-0.22-0.843-0.445-1.7-1.23-4.61-2.51-9.19-3.91-13.7-3.46-11.2-6.46-22.5-9.04-33.9-0.581-2.54-1.19-5.07-1.82-7.6-3.62-15.2-5.72-30.6-7.82-46.1-0.124-0.904-0.247-1.81-0.375-2.74-0.234-1.72-0.465-3.44-0.692-5.16-0.494-4.15-0.494-4.15-1.9-8.04-0.17-1.59-0.286-3.18-0.373-4.78-0.0568-0.996-0.114-1.99-0.172-3.02-0.086-1.62-0.086-1.62-0.174-3.28-0.0628-1.12-0.126-2.24-0.19-3.39-0.201-3.59-0.396-7.19-0.591-10.8-0.195-3.54-0.392-7.09-0.589-10.6-0.127-2.29-0.254-4.58-0.379-6.87-0.314-5.68-0.682-11.4-1.15-17-0.512-6.85-0.263-13.6 0.0586-20.5 0.384-9.22 0.681-18.4 0.525-27.6-0.062-4.9-0.062-4.9 1.04-7.1 0.141-1.68 0.226-3.37 0.281-5.05l0.113-3.06 0.105-3.21c0.0692-2.08 0.142-4.16 0.219-6.24 0.0303-0.925 0.0606-1.85 0.0918-2.8 0.188-2.63 0.647-5.07 1.19-7.65 0.176-1.44 0.331-2.88 0.465-4.33l0.236-2.43c0.156-1.65 0.31-3.3 0.461-4.95 0.48-4.88 1.27-9.54 2.39-14.3 0.533-2.39 0.814-4.74 1.01-7.17 0.32-3.65 0.823-7.2 1.44-10.8 0.126-1.44 0.251-2.87 0.375-4.31 0.33-3.1 0.918-5.76 2.01-8.67 2.38-6.92 3.4-14.1 4.63-21.3 1.12-6.19 2.55-11.8 5.1-17.5 1.17-2.83 1.73-5.66 2.34-8.65 1.05-4.8 2.48-9.5 3.87-14.2 0.495-1.68 0.987-3.36 1.48-5.04 0.89-3.04 1.79-6.08 2.7-9.12 0.284-0.975 0.569-1.95 0.862-2.95 1.51-5.02 3.23-9.58 5.68-14.2 1.74-3.57 2.84-7.36 4.02-11.2 1.56-5 3.08-9.37 5.94-13.8 0.519-1.26 1-2.53 1.44-3.81 1.77-4.92 4.15-9.46 6.55-14.1 1.17-2.43 2.15-4.9 3.14-7.41 2.24-5.44 4.89-10.6 7.7-15.7 4.06-7.49 7.61-15.2 11.2-23h2l0.188-2.06c0.939-3.39 2.46-5.4 4.55-8.18 1.75-2.43 2.97-5.05 4.26-7.75 2.05-3.77 4.16-7.29 6.69-10.8 2.41-3.05 2.41-3.05 3.31-6.25h2c0.251-0.871 0.503-1.74 0.762-2.64 1.3-3.52 2.87-6.06 5.05-9.11 0.383-0.541 0.766-1.08 1.16-1.64 1.33-1.88 2.68-3.74 4.03-5.61 0.538-0.746 1.08-1.49 1.63-2.26 2.28-3.16 4.56-6.32 6.85-9.47 0.528-0.727 1.06-1.45 1.6-2.2 0.502-0.691 1-1.38 1.52-2.09 1.28-1.81 2.47-3.64 3.66-5.51 0.574-0.813 1.15-1.63 1.74-2.46h2l0.684-2.15c1.61-3.49 3.73-5.71 6.38-8.48 3.71-3.74 3.71-3.74 5.94-8.38 1.62-1.71 3.29-3.38 5-5 2.05-1.98 2.05-1.98 3.84-4.31 2.83-3.53 5.89-6.84 8.94-10.2 2.16-2.44 4.2-4.95 6.22-7.5 1.62-1.81 1.62-1.81 3-3h2c0.165-0.681 0.33-1.36 0.5-2.06 1.87-3.66 4.29-5.52 7.42-8.12 1.91-1.67 3.48-3.36 5.08-5.32 2.72-3.32 5.79-5.98 9.06-8.75 1.85-1.67 3.37-3.38 4.94-5.32 2.59-3.13 5.39-5.31 8.69-7.66 2.81-2.16 5.36-4.54 7.94-6.96 5.43-5.07 11.1-9.67 17-14.2 2.93-2.26 5.77-4.61 8.61-6.98 9.45-7.79 19.6-14.8 29.8-21.6 1.24-0.926 2.47-1.86 3.69-2.81 3.99-3.02 8.15-5.68 12.4-8.33 3.06-1.94 6.06-3.95 9.05-5.98 4.14-2.77 8.3-5.32 12.7-7.67 2.34-1.29 4.61-2.67 6.88-4.08 5.22-3.17 10.6-5.84 16.1-8.51 2.83-1.43 5.49-2.97 8.2-4.61 10.7-6.03 21.8-11.3 33.1-16.1 2.56-1.12 5.1-2.3 7.64-3.48 5.96-2.72 12-5.11 18.1-7.51 2.37-0.94 4.73-1.89 7.09-2.85 27.2-11 27.2-11 35.9-12.5 2.55-0.655 4.85-1.73 7.25-2.79 3.18-1.28 6.46-2.04 9.78-2.83 0.984-0.241 0.984-0.241 1.99-0.486 3.51-0.853 7.04-1.65 10.6-2.42 4.62-1.02 9.18-2.23 13.8-3.47 7.04-1.89 14.1-3.55 21.2-4.98 2.56-0.462 2.56-0.462 4.59-1.58 1.83-0.182 3.66-0.322 5.5-0.438 4.74-0.36 9.23-1.03 13.9-2.02 7.83-1.6 15.7-2.65 23.7-3.29 2.01-0.149 2.01-0.149 3.93-1.25 2.85-0.313 5.7-0.51 8.57-0.719 2.38-0.0196 2.38-0.0196 3.43-1.28 3.16-0.0603 6.3-0.0203 9.45 0.0391 3.14 0.0367 5.54-0.0374 8.55-1.04 2.94-0.0687 5.86 0.00225 8.8 0.0625 3.17 0.0169 3.17 0.0169 6.13-0.558 5.44-0.803 10.9-0.647 16.4-0.637zm64.7 2.13v1h7v-1h-7zm-22 300c-5.97 10.8-8.95 22.6-11.8 34.5-8.86 36.4-25.8 66.1-51.2 93.5 2.07-2.63 4.17-5.19 6.38-7.7 12.1-13.7 21.5-28.9 29.6-45.3 0.487-0.964 0.975-1.93 1.48-2.92 1.83-3.81 2.86-6.03 1.52-10.1-0.692 1.47-0.692 1.47-1.4 2.97-6.12 12.8-13.2 24.4-22.6 35v2c-1.49 0.495-1.49 0.495-3 1-1.25 1.45-2.49 2.9-3.68 4.39-3.6 4.42-7.87 8.08-12.3 11.6h-1c-5.73 0.775-11.1 2.46-16.5 4.18-25.7 7.83-53.8 1.34-79.3-3.75-1.97-0.392-3.95-0.784-5.92-1.17-1.94-0.385-3.88-0.77-5.82-1.16-8.7-1.69-17.4-3.02-26.2-4.04-1.1-0.128-2.21-0.257-3.34-0.389-5.07-0.827-5.07-0.827-9.84 0.327-0.841 1.92-0.841 1.92-1.51 4.25-0.396 1.28-0.396 1.28-0.801 2.59-0.404 1.35-0.404 1.35-0.816 2.72-0.277 0.902-0.554 1.8-0.84 2.73-0.685 2.23-1.36 4.47-2.04 6.71 1.32-6.27 2.64-12.5 4-19-1.32-0.33-2.64-0.66-4-1-5.51 8.27-5.53 20.3-6 30-0.112-9.07 0.0576-18 1-27-4.69 3.31-7.6 7.22-10.8 11.9-0.786 1.13-0.786 1.13-1.59 2.28-13.4 19.5-22.6 38.8-19.6 62.8 0.298 1.34 0.612 2.68 1 4h-3c-0.201-1.3-0.201-1.3-0.406-2.62-0.565-3.22-1.3-6.34-2.09-9.51-1.48-6.28-2.16-12.4-2.5-18.9-2.29 0.86-2.29 0.86-2.96 3.65-0.325 1.16-0.649 2.31-0.984 3.5-0.532 1.88-0.532 1.88-1.07 3.79-0.272 0.983-0.272 0.983-0.549 1.99-0.554 2-1.12 4-1.69 5.99-1.92 5.95-1.92 5.95-2.75 12.1h-2v-34h-2c-5.07 16.8-5.07 16.8-8 34h-2c0.0157-0.651 0.0314-1.3 0.0476-1.97 0.0623-2.95 0.101-5.89 0.14-8.84 0.0251-1.02 0.0503-2.05 0.0762-3.1 0.00967-0.983 0.0193-1.97 0.0293-2.98 0.0157-0.906 0.0314-1.81 0.0476-2.75-0.161-2.78-0.161-2.78-3.34-5.36-2.48 8.91-2.48 8.91-5 18-2.27-3.4-3.39-6.84-4.62-10.7-0.229-0.702-0.459-1.4-0.695-2.13-0.564-1.73-1.12-3.46-1.68-5.19h-2c-0.386 6.82 0.991 12.5 3 19-3.46-3-4.69-5.31-5.75-9.75l-0.734-2.98c-0.17-0.748-0.34-1.5-0.516-2.27-0.66 0.33-1.32 0.66-2 1v15c-0.66-0.33-1.32-0.66-2-1-0.633-2.07-0.633-2.07-1.12-4.56l-0.508-2.5c-0.121-0.638-0.242-1.28-0.367-1.93h-2c-0.33 3.63-0.66 7.26-1 11h-2c-0.33-3.63-0.66-7.26-1-11h-2c-0.66 2.97-1.32 5.94-2 9-23.1 5.95-46.5 10.9-70.4 12.3-8.5 0.546-17.3 2.2-24.6 6.72-2.15 3.23-2.47 5.03-3 8.81-0.649 4.25-1.43 8.16-3 12.2 5.66 3.67 10.9 3.41 17.5 3.34 1.15 4.38e-4 2.3 8.76e-4 3.49 0.00133 3.8-0.00209 7.6-0.0254 11.4-0.0489 2.64-0.0056 5.27-0.00987 7.91-0.0129 6.23-0.00931 12.5-0.0339 18.7-0.064 7.09-0.0336 14.2-0.05 21.3-0.0651 14.6-0.0313 29.2-0.0841 43.7-0.151 0.319 0.801 0.638 1.6 0.967 2.43 7.11 17.8 14.3 35.6 21.7 53.3 0.731 1.75 1.46 3.5 2.19 5.25 0.354 0.847 0.707 1.69 1.07 2.57 2.24 5.38 4.41 10.8 6.53 16.2 0.785 1.98 1.57 3.97 2.36 5.95 0.703 1.79 1.38 3.59 2.06 5.39 2.84 7.14 5.94 11.3 12.1 15.8 1.09 0.976 2.17 1.95 3.25 2.94 2.71 2.46 2.71 2.46 6.75 2.06 1.6-1.35 1.6-1.35 3-3 0.99-0.66 1.98-1.32 3-2v-2c0.557-0.227 1.11-0.454 1.69-0.688 2.54-1.28 2.54-1.28 4.69-4 2.62-2.31 2.62-2.31 5.5-2.38 4.6 1.57 8.65 3.58 12.1 7.06 0.681 0.165 1.36 0.33 2.06 0.5 0.639 0.165 1.28 0.33 1.94 0.5 0.33 0.66 0.66 1.32 1 2 1.63 1.08 1.63 1.08 3.69 2.12 3.48 1.87 6.9 3.81 10.3 5.83 7.08 4.18 14.2 7.41 22 10 0.866 0.32 1.73 0.639 2.62 0.969 11 3.62 25.8 4.09 36.4-0.969 7.18-3.77 12.9-8.74 16-16.4 0.771-2.57 1.46-5.14 2.1-7.75 1.55-6.27 2.64-10.6 7.94-14.8 2.55-0.946 4.63-1.02 7.33-0.906 5.81 0.209 9.14-0.00645 13.7-4.09 3.7-4.32 3.32-8.6 3-14 1.2 0.0619 2.39 0.124 3.62 0.188 4.17-0.0147 6.84-0.859 10.4-3.19 3.43-3.64 4.53-6.18 5.06-11.1 0.78-6.16 2.15-11.9 3.94-17.9 5.42-0.856 9.53-0.808 15 0 11.3 1.32 11.3 1.32 21.4-2.5 5.96-5.99 6.2-14.9 6.44-22.8 0.035-1.07 0.0699-2.13 0.106-3.23 0.23-9.66-0.491-18.9-1.92-28.5-0.276-1.86-0.276-1.86-0.558-3.76-1.85-12.4-3.7-24.7-6.08-37-1.97-12.4 6.57-24.7 13.4-34.5 1.69-2.48 2.95-5.11 4.24-7.81 0.722-1.25 1.45-2.5 2.19-3.75 1.97-2.92 1.97-2.92 1.81-5.25 1.49-0.495 1.49-0.495 3-1 1.04-1.98 2.03-3.99 3-6 1.59-2.39 3.29-4.69 5-7 1 1 1 1 1.06 3.16-0.0206 0.958-0.0412 1.92-0.0625 2.9-0.0937 15.8 0.263 30.7 9.19 44.2 2.61 4.16 4.84 8.5 7.06 12.9 0.353 0.689 0.707 1.38 1.07 2.09 7.34 14.7 3.68 33.7 2.24 49.6-0.0674 0.747-0.135 1.49-0.204 2.26-1.86 20.4-1.86 20.4-3.36 21.9-0.372 2.45-0.654 4.85-0.875 7.31-0.0851 0.677-0.17 1.35-0.258 2.05-0.252 2.27-0.252 2.27 0.133 5.63 3.19 3.35 6.02 4.82 10.6 5.24 7.69 0.18 14-0.982 21.3-3.46 3.19-0.802 4.97-0.703 8.09 0.223 0.228 2.05 0.456 4.1 0.684 6.15 0.135 1.86 0.135 1.86 1.32 2.85v4.19c0.301 3.16 0.604 4.42 2.89 6.67 3.19 2.14 6.14 3.86 9.84 4.94 0.749 0.397 1.5 0.794 2.27 1.2 0.785 2.64 0.785 2.64 1.06 5.81 0.451 4.97 1.14 7.79 4.94 11.2 3.02 1.15 6.08 1.74 9.25 2.31 1.26 0.252 1.26 0.252 2.55 0.51 2.06 0.41 4.13 0.797 6.2 1.18v2h2c0.182 0.629 0.364 1.26 0.551 1.91 1.39 4.73 2.86 9.37 4.64 14 0.964 2.53 1.85 5.08 2.75 7.63 3.08 8.49 6.04 16.1 14.3 20.5 5.26 1.99 10.6 1.72 16.1 1.61 1.15 0.011 2.31 0.0219 3.5 0.0332 10.9-0.0923 19.5-3.51 29.1-8.47 0.677-0.341 1.35-0.682 2.05-1.03 3.18-1.6 6.29-3.25 9.38-5.01 8.38-4.66 8.38-4.66 13.2-3.83 10.3 3.48 19 10.1 27.4 16.8 0.844 0.65 1.69 1.3 2.56 1.97 12.9 10 25.6 21.6 36 34.2 2.24 2.59 3.44 3.47 6.44 4.81 2.04-1.36 2.04-1.36 4-3v-2c0.562-0.233 1.12-0.467 1.7-0.707 2.86-1.61 4.77-3.61 7.05-5.98 4.25-4.34 8.62-8.39 13.2-12.3 0.51-0.461 1.02-0.923 1.55-1.4 3.85-3.41 7.83-5.45 12.5-7.6-3.91-4.62-3.91-4.62-7.98-9.09-9.79-10.4-19.1-22.4-24-35.9-0.303-0.811-0.606-1.62-0.918-2.46-6.12-17.3-2.41-36.1 1.85-53.5 5.76-24 2.1-45.8-9.93-67-1.9-3.08-3.86-6.08-6-9 0.545-0.415 1.09-0.83 1.65-1.26 14.4-11.8 21.9-29.5 24.2-47.7 1.64-17.8-4.26-34.4-14.7-48.6-5.7-6.56-13.1-10.9-21.8-11.6-5.68-0.199-9.42 0.0838-14.3 3.21-1.81 2.15-3.34 4.17-4.88 6.5-0.871 1.27-1.74 2.53-2.61 3.8-0.637 0.941-0.637 0.941-1.29 1.9-2.96 4.36-6.05 8.6-9.22 12.8-0.975 1.37-0.975 1.37-1.97 2.76-6.08 7.76-12.7 9.76-22 11.2-0.766 0.121-1.53 0.242-2.32 0.367-16.2 1.16-32.8-11.8-44.4-21.9-6.55-5.79-12.7-11.8-18.3-18.5-1.25-1.44-2.5-2.88-3.75-4.31-0.552-0.636-1.1-1.27-1.67-1.93-0.997-1.11-2.03-2.2-3.09-3.24-1.48-1.52-1.48-1.52-2.54-3.54-2.99-3.04-6.48-2.85-10.5-3.14-0.861-0.076-1.72-0.152-2.61-0.23-2.76-0.241-5.53-0.458-8.3-0.672-35.1-2.87-35.1-2.87-51.4-7.69-0.878-0.257-1.76-0.515-2.66-0.78-19.4-5.97-31.9-19.1-41.3-36.6-1.03-1.96-2.05-3.91-3.06-5.88h-2c-0.124 0.532-0.249 1.06-0.377 1.61-1.32 5.65-2.66 11.3-3.99 16.9-0.495 2.09-0.987 4.19-1.48 6.28-2.56 10.9-5.22 21.8-8.39 32.6-0.247 0.852-0.493 1.7-0.747 2.58-0.607 2.01-1.3 3.99-2.01 5.97-0.66 0.33-1.32 0.66-2 1 0.569-1.62 0.569-1.62 1.15-3.28 3.81-11 6.83-22.1 9.48-33.5 0.738-3.14 1.48-6.28 2.23-9.42 0.178-0.752 0.355-1.5 0.538-2.28 1.42-5.93 3.08-11.8 4.86-17.6 1.04-4.12 1.04-7.72 0.746-11.9h-1zm-23 60 1 2zm-594 35 1 2zm403 4c-1.63 1.91-1.63 1.91-3.19 4.31-0.55 0.801-1.1 1.6-1.67 2.43-0.378 0.746-0.755 1.49-1.14 2.26 0.33 0.99 0.66 1.98 1 3 3.04-0.673 3.04-0.673 4.17-2.74 0.336-0.704 0.673-1.41 1.02-2.13 0.344-0.699 0.688-1.4 1.04-2.12 0.948-2.12 0.948-2.12 0.77-5.01h-2zm-415 28 1 2zm-15 50 1 2zm-1 5 1 2zm-7 30 1 4zm128 62c-11.7 0.807-23.4 1.91-32 11-2.86 2-5.77 3.86-8.73 5.71l-2.96 1.86-2.82 1.75c-2.13 1.44-3.73 2.84-5.49 4.68-1.4 0.931-2.79 1.86-4.2 2.77-2.94 2.01-5.71 4.24-8.5 6.44-2.09 1.63-4.22 3.22-6.36 4.79-3.48 2.6-6.75 5.38-9.99 8.27-1.87 1.66-3.78 3.25-5.7 4.85-6.47 5.65-9.45 11.2-10.2 19.9 0.992 4.87 2.86 8.05 6.68 11.2 2.32 2.77 2.32 2.77 2.48 6.73-0.153 1.47-0.334 2.95-0.539 4.41-0.93 7.12-0.458 11.4 3.64 17.5 4.18 3.99 8.28 4.67 13.9 5.42 7.23 0.987 7.23 0.987 9.74 3.73 0.744 1.58 1.44 3.18 2.07 4.8 1.6 3.24 3.88 4.13 7.1 5.5 4.14 1.38 6.66 1.73 11 0.656 0.227 0.681 0.454 1.36 0.688 2.06 3.07 6.87 7.19 12 14.3 14.9 5.66 1.13 10.3 0.0107 15.3-2.79 3.01-2.11 5.17-4.58 6.36-8.07 2.15-3.36 5.38-4.83 8.8-6.76 1.35-0.783 2.71-1.57 4.06-2.35 0.9-0.512 0.9-0.512 1.82-1.03 1.6-0.938 3.14-1.96 4.69-2.99 2.95-0.812 5.91-1.46 8.89-2.12 4.82-1.35 4.82-1.35 9.11-3.88 1.73-3.36 2.74-6.89 3.81-10.5 10-31 28.2-57.9 46.6-84.5 0.519-0.748 1.04-1.5 1.57-2.27 0.953-1.37 1.91-2.74 2.87-4.1 2.34-3.03 2.34-3.03 3.1-6.64-12.3-2.15-24.7-3.28-37.1-4.5-2.24-0.224-4.49-0.449-6.73-0.673-13-1.29-26-2.48-39-3.19l-2.9-0.176c-0.808-0.0415-1.62-0.083-2.45-0.126-0.89-0.164-0.89-0.164-1.8-0.331l-1-2zm-138 21 1 2z" fill="#000002"/>
<path transform="translate(784 83.9)" d="m0 0c1.18-9.57e-4 2.37-0.00191 3.59-0.0029 2.5-6.79e-4 5 0.00116 7.5 0.00534 3.8 0.00533 7.6 5.49e-5 11.4-0.00635 2.44 6.61e-4 4.88 0.00194 7.32 0.00391 1.12-0.00202 2.25-0.00405 3.41-0.00613 6.07 0.0178 12 0.277 18.1 0.926 3.7 0.331 7.37 0.193 11.1 0.0883 6.64-0.0932 12.6 0.521 19.1 1.92 5.44 1.14 10.8 1.77 16.4 2.27 6.71 0.614 13.3 1.37 20 2.47 4.5 0.741 9.01 1.37 13.5 1.89 11.4 1.35 11.4 1.35 15.1 3.13 3.7 1.67 6.76 1.83 10.8 2.12 3.44 0.444 6.28 1.89 9.42 3.31 2.33 0.344 4.67 0.675 7 1 2.68 0.577 5.34 1.25 8 1.94 0.673 0.17 1.35 0.339 2.04 0.514 4.34 1.1 8.65 2.3 13 3.55 1.73 0.464 1.73 0.464 3.5 0.938 2.94 0.894 5.65 1.98 8.45 3.22 5.83 2.4 11.9 4.21 18 6.04 7.33 2.23 14.4 4.61 21.4 7.7 2.84 1.19 5.72 2.14 8.65 3.11 1.41 0.58 2.8 1.18 4.19 1.81 1.17 0.53 1.17 0.53 2.36 1.07 0.808 0.369 1.62 0.737 2.45 1.12 0.777 0.348 1.55 0.696 2.36 1.05 14 6.31 27.9 13 41.6 19.9 1.46 0.73 2.92 1.46 4.38 2.19l1.81 0.91c1.33 0.662 2.66 1.31 4 1.96 0.722 0.352 1.44 0.704 2.19 1.07 0.647 0.312 1.29 0.624 1.96 0.945 1.66 0.93 1.66 0.93 3.66 2.93 1.94 1.07 3.9 2.11 5.88 3.12 5.72 3.03 11.1 6.38 16.4 10.1 2.83 1.85 5.73 3.3 8.75 4.8 1.58 0.969 3.15 1.97 4.69 3 1.12 0.742 1.12 0.742 2.26 1.5 1.89 1.38 3.4 2.85 5.05 4.5 1.6 0.885 3.2 1.77 4.8 2.65 3.84 2.36 7.35 5.17 10.9 7.9 4.35 3.29 8.85 6.34 13.4 9.4 3.93 2.76 7.53 5.64 10.9 9.04 1.26 0.996 2.53 1.97 3.81 2.94 9.38 7.23 18.2 15.1 27 23.1 1.96 1.76 3.96 3.46 5.99 5.14 2.22 1.88 4.1 3.81 5.94 6.06 2.14 2.89 2.14 2.89 5.25 4.75v2c1.32 0.66 2.64 1.32 4 2v2c1.32 0.66 2.64 1.32 4 2v2c0.578 0.248 1.16 0.495 1.75 0.75 2.58 1.43 4.31 3.03 6.25 5.25v2c0.99 0.33 1.98 0.66 3 1 1.79 1.74 1.79 1.74 3.62 3.88 0.611 0.699 1.22 1.4 1.85 2.12 1.52 2.01 1.52 2.01 2.52 5.01 1.32 0.69 2.66 1.35 4 2 1.61 1.56 1.61 1.56 3.19 3.44 0.599 0.708 1.2 1.42 1.82 2.14 2.98 3.61 5.96 7.22 8.91 10.9 1.69 2.07 3.41 4.1 5.15 6.12 1.94 2.44 1.94 2.44 1.94 4.44h2c1.36 1.68 2.64 3.42 3.88 5.19 2.61 3.7 5.28 7.29 8.12 10.8 9.95 13.2 19.2 27 28 41 0.578 0.914 1.16 1.83 1.75 2.77 1.25 2.23 1.25 2.23 1.25 4.23h2c0.51 0.947 0.51 0.947 1.03 1.91 4.84 8.94 9.87 17.8 15 26.5 2.05 3.59 3.91 7.27 5.74 11 0.703 1.42 1.41 2.83 2.11 4.25 0.355 0.717 0.71 1.43 1.08 2.17 1.02 2.05 2.05 4.1 3.08 6.14 13.1 26 13.1 26 18 39 0.24 0.634 0.48 1.27 0.727 1.92 0.479 1.27 0.956 2.55 1.43 3.82 2.49 6.64 5.02 13.3 7.72 19.8 5.43 13.6 9.89 27.4 13.6 41.5 0.689 2.6 1.41 5.19 2.13 7.79 4.35 16.1 8.57 32.4 11 48.9 0.341 2.13 0.824 4.16 1.36 6.24 3.13 14.5 4.59 29.3 6 44h1c1.4 18.6 2.25 37.1 2.69 55.7 0.0246 0.964 0.0493 1.93 0.0747 2.92 0.263 10.5 0.389 20.9-0.762 31.4-0.99-0.33-1.98-0.66-3-1v3l2 1c0 3 0 3-1 6-0.557-0.722-1.11-1.44-1.69-2.19-2.22-2.82-2.22-2.82-4.69-5.06-3.42-3.59-5.98-7.57-8.62-11.8 3 0 3 0 6 1-0.33-0.33-0.66-0.66-1-1v-2c-0.536-0.227-1.07-0.454-1.62-0.688-5.21-2.88-9.21-7.14-13.4-11.3-0.928-0.722-1.86-1.44-2.81-2.19-1.08-0.897-1.08-0.897-2.19-1.81v-2c-0.66-0.186-1.32-0.371-2-0.562-6.32-3.03-11.1-8.53-16-13.4l-24-24c-0.911-0.869-1.82-1.74-2.76-2.63-2.24-2.37-2.24-2.37-3.63-5.82-2-4.42-4.52-6.46-8.29-9.36-2.15-1.69-4.24-3.4-6.31-5.19v-2l-1.69-0.688c-2.97-1.69-4.96-3.84-7.31-6.31-0.735-0.712-1.47-1.42-2.23-2.16-8.68-8.9-17-18.8-22.8-29.8-0.873-1.58-1.75-3.17-2.62-4.75-0.398-0.728-0.797-1.46-1.21-2.21-1.08-1.89-2.24-3.69-3.48-5.48-1.69-2.56-1.69-2.56-1.69-4.56-1.32-0.33-2.64-0.66-4-1 0.495 0.351 0.99 0.701 1.5 1.06 2.23 2.88 1.7 5.41 1.5 8.94-4.03-2.91-6.38-5.79-9-10-0.957-1.4-1.92-2.79-2.88-4.19-9.01-13.6-16.1-28.7-22.1-43.8-0.708-1.7-1.42-3.4-2.13-5.11-6.13-14.7-11.2-29.5-15.7-44.8-1.39-4.71-2.88-9.38-4.45-14-1.01-3.05-1.88-6.14-2.75-9.23-3.62-12.5-7.73-24.9-11.8-37.3-0.993-3.05-1.98-6.1-2.97-9.15-2.71-8.31-5.69-16.4-9.2-24.4-0.764-1.8-1.53-3.59-2.29-5.39-4.47-10.5-8.98-20.8-14.7-30.6-0.733-1.29-0.733-1.29-1.48-2.61-3.74-6.45-8.05-12.4-12.5-18.4l-2.3-3.08c-1.53-2.05-3.07-4.09-4.61-6.13-1.26-1.68-2.5-3.37-3.71-5.08-3-4.22-6.21-7.55-10.2-10.9-2.41-2.02-4.7-4.15-7-6.28-14.2-12.7-31-22.4-48.2-30.6-1.36-0.706-2.71-1.41-4.06-2.12-17.5-8.58-36.7-10.3-55.8-11.9-1.29-0.111-2.59-0.223-3.92-0.338-1.17-0.095-2.33-0.19-3.53-0.288-2.64-0.325-2.64-0.325-3.64-1.33-1.4-0.0986-2.81-0.131-4.22-0.133-0.849-0.00129-1.7-0.00258-2.57-0.00391-1.34 0.0058-1.34 0.0058-2.71 0.0117-0.893-0.00387-1.79-0.00773-2.71-0.0117-1.27 0.00193-1.27 0.00193-2.57 0.00391-1.18 0.00169-1.18 0.00169-2.38 0.00342-1.86-0.0717-1.86-0.0717-2.84 1.13-1.67 0.216-3.35 0.371-5.03 0.5-1.04 0.0825-2.08 0.165-3.15 0.25-1.1 0.0825-2.19 0.165-3.32 0.25-13.9 0.883-13.9 0.883-27.6 3.44-1.41 0.369-1.41 0.369-2.85 0.746-1.02 0.269-2.04 0.539-3.09 0.816-2.67 0.669-5.33 1.34-8 2-3.21 0.801-6.42 1.62-9.62 2.44-1.23 0.306-1.23 0.306-2.48 0.619-4.64 1.2-8.63 2.69-12.9 4.94-1.72 0.599-3.45 1.16-5.19 1.69-10.5 3.4-20.6 8-30.7 12.4-0.709 0.311-1.42 0.622-2.15 0.943-3.12 1.46-6.03 3.2-9 4.94-1.99 1.02-3.99 2.02-6 3-1.07 0.557-2.14 1.11-3.25 1.69-2.75 1.31-2.75 1.31-4.75 1.31v2c-1.18 0.578-2.35 1.15-3.56 1.75-2.83 1.41-5.59 2.89-8.31 4.5-3.12 1.75-3.12 1.75-5.12 1.75-0.33 0.99-0.66 1.98-1 3-5.64 0.332-9.26 0.371-14-3-1.2-0.413-2.39-0.825-3.62-1.25-4.36-2.26-4.56-4.29-6.38-8.75-4.65-5.77-11.5-8.26-18.1-11.2-8.7-3.92-17.2-8.26-25.3-13.3-1.87-1.14-3.77-2.22-5.69-3.27-13.2-7.23-24.9-16.3-36.2-26.3-3.4-2.99-6.88-5.54-10.7-8.01-1.36-1.03-2.72-2.07-4.06-3.12-2.86-2.18-5.47-3.79-8.94-4.88v-2c-0.797-0.193-1.59-0.387-2.41-0.586-1.59-0.391-1.59-0.391-3.21-0.789-1.04-0.255-2.09-0.51-3.16-0.773-3.21-0.852-3.21-0.852-6.03-1.89-3.31-0.994-5.88-1.17-9.32-1.13-1.73-0.0106-1.73-0.0106-3.5-0.0215-2.39 0.00129-4.79 0.0219-7.18 0.0625-7.63-0.0891-12.1-1.27-18-6.18-4.78-3.7-10.6-4.58-16.4-5.92-2.84-0.781-2.84-0.781-4.84-1.86-2.72-1.25-4.96-1.15-7.94-1.11l-3.09 0.0195c-2.93 0.0755-2.93 0.0755-5.55 0.797-3.04 0.466-4.38-0.249-7.17-1.5-7.64-2.81-15.4-2.66-23.4-2.71-5.76-0.0823-9.78-0.305-14.8-3.42-13.4-2.78-26.3-0.408-37.8 6.76-6.88 4.52-13.6 9.3-20.2 14.2-0.908 0.682-1.82 1.36-2.75 2.07-2.43 1.79-2.43 1.79-3.31 4.62-0.309 0.763-0.619 1.53-0.938 2.31-2.12 0.812-2.12 0.812-4 1v2c-1.72 0.988-3.45 1.96-5.19 2.94-1.44 0.818-1.44 0.818-2.92 1.65-2.7 1.32-4.94 1.98-7.89 2.41v2l-1.58 0.812c-5.47 2.91-10.4 6.25-15.4 9.95-2.15 1.59-4.3 3.13-6.48 4.66-6.5 4.53-12.5 9.19-18.4 14.6-1.93 1.74-3.86 3.24-5.99 4.71-3.94 2.78-7.07 5.79-10 9.62-2.5 3.01-5.29 5.41-8.25 7.95-6.59 5.7-13.1 12.4-17.9 19.7h-2c-0.34 0.773-0.34 0.773-0.688 1.56-2.5 4.64-5.53 8.77-9.31 12.4-6.8 7.28-11.9 15.8-17 24.3-0.601 0.989-1.2 1.98-1.82 3-0.522 0.883-1.04 1.77-1.58 2.68-1.87 2.35-2.79 2.37-5.61 3.01-0.734 1.96-1.44 3.93-2.02 5.93-1.26 3.97-2.82 7.78-4.41 11.6-0.289 0.708-0.577 1.42-0.874 2.14-1.77 4.29-3.71 8.46-5.83 12.6-1.72 3.42-2.87 6.75-3.86 10.5-0.33 1.07-0.66 2.14-1 3.25-0.66 0.33-1.32 0.66-2 1l0.125 2.38c-0.125 2.62-0.125 2.62-2.12 4.62h2l1.38-3.44c1.62-3.56 1.62-3.56 3.62-4.56 1.13-2.02 1.13-2.02 2-4 0.66 0.33 1.32 0.66 2 1 0.254-0.88 0.508-1.76 0.77-2.67l1.04-3.52c0.336-1.15 0.673-2.3 1.02-3.48 1.1-3.14 2.36-5.56 4.17-8.33 0.521-0.839 1.04-1.68 1.58-2.54 5.76-9.11 11.9-17.9 18.4-26.5l3 2c-0.99 2.31-1.98 4.62-3 7h-2l-0.688 2.81c-0.938 3.31-2.24 6.32-3.69 9.44-2.55 5.48-4.73 11-6.62 16.8l-0.727 2.18c-1.99 6.23-3.1 12.3-3.9 18.8-0.121 0.92-0.242 1.84-0.367 2.79-0.785 6.06-1.43 12.1-2.01 18.2h-4c0.308 1.65 0.621 3.29 0.938 4.94 0.174 0.917 0.348 1.83 0.527 2.78 0.312 2.24 0.312 2.24 1.54 3.29 0.274 1.67 0.492 3.35 0.684 5.03 0.185 1.56 0.185 1.56 0.373 3.15 0.25 2.18 0.5 4.36 0.75 6.55 0.735 6.2 1.72 12.2 3.19 18.3 0.272 1.24 0.544 2.48 0.824 3.76 2.16 9.82 4.4 19.6 6.68 29.4 0.152 0.656 0.305 1.31 0.462 1.99 1.94 8.33 4.01 16.6 6.26 24.9 1.97 7.55 2.99 15.1 3.53 22.9 0.0221 2.1 0.0221 2.1 1.25 3.12 0.157 1.71 0.251 3.42 0.316 5.13 0.0628 1.55 0.0628 1.55 0.127 3.13l0.119 3.3c0.0432 1.09 0.0864 2.18 0.131 3.31 0.106 2.71 0.208 5.42 0.307 8.13h2c0.376 5.63-0.735 10.2-2.34 15.6-0.746 2.27-0.746 2.27-0.656 4.36-0.926-0.00444-1.85-0.00888-2.81-0.0135-8.74-0.0401-17.5-0.0705-26.2-0.0902-4.49-0.0104-8.99-0.0246-13.5-0.0473-4.34-0.0218-8.68-0.0337-13-0.0389-1.65-0.00369-3.31-0.0109-4.96-0.0217-2.32-0.0146-4.64-0.0165-6.96-0.0156-1.32-0.00444-2.64-0.00888-4-0.0135-3.56 0.24-6.29 0.838-9.57 2.24-1.42 2-1.42 2-2 4h-2l-0.875 3.38c-1.12 3.62-1.12 3.62-3.12 5.62-0.792 1.89-0.792 1.89-1.44 4.06-0.257 0.807-0.513 1.61-0.777 2.45-0.259 0.822-0.518 1.64-0.785 2.49-0.498 1.48-0.998 2.96-1.5 4.44-1.61 4.82-3.06 9.69-4.5 14.6-1.11 0.0864-2.22 0.173-3.37 0.262-8.03 0.724-14.8 1.52-21.8 5.71-1.79 1.02-1.79 1.02-3.79 1.02-0.33 0.99-0.66 1.98-1 3-1.53 1.18-1.53 1.18-3.5 2.31-3.99 2.36-7.8 4.91-11.6 7.55-1.88 1.14-1.88 1.14-3.88 1.14-0.33 0.99-0.66 1.98-1 3-1.53 1.14-1.53 1.14-3.5 2.25-4.82 2.87-9.11 6.27-13.5 9.75-1.47 1.15-2.95 2.3-4.44 3.44l-1.93 1.5c-1.63 1.07-1.63 1.07-3.63 1.07-0.227 0.576-0.454 1.15-0.688 1.75-1.67 2.87-3.67 4.32-6.31 6.32-2.98 2.26-4.91 3.81-7 6.94h-2c-3.22 10.7-3.22 10.7-0.469 21 1.5 2.17 1.5 2.17 4.15 4.19 2.32 2.78 2.32 2.78 2.48 6.74-0.153 1.47-0.334 2.95-0.539 4.41-0.796 6.09-0.858 10.1 2.38 15.6 4.42 4.7 8.05 5.83 14.2 6.56 7.27 0.89 7.27 0.89 9.69 3.34l1.12 2.09 1.75 2.94c1.45 3.56 1.28 4.44 0.25 8.06-1.08 2.47-2.19 4.89-3.38 7.31-2.82 5.84-2.82 5.84-5.19 11.9-1.15 3.27-2.66 6.24-4.25 9.31-3.09 6.05-5.43 12.2-7.75 18.6-2.63 7.19-5.64 14.2-8.88 21.1-2.41 5.24-4.44 10.6-6.42 16-1.58 4.31-3.32 8.53-5.14 12.7-0.684 1.79-1.35 3.58-2 5.38-0.338 0.936-0.675 1.87-1.02 2.84-1.15 3.29-2.23 6.59-3.27 9.91-0.711 1.87-0.711 1.87-2.71 4.88h-2c-0.22-0.843-0.22-0.843-0.445-1.7-1.23-4.61-2.51-9.19-3.91-13.7-3.46-11.2-6.46-22.5-9.04-33.9-0.581-2.54-1.19-5.07-1.82-7.6-3.62-15.2-5.72-30.6-7.82-46.1-0.124-0.904-0.247-1.81-0.375-2.74-0.234-1.72-0.465-3.44-0.692-5.16-0.494-4.15-0.494-4.15-1.9-8.04-0.17-1.59-0.286-3.18-0.373-4.78-0.0568-0.996-0.114-1.99-0.172-3.02-0.0573-1.08-0.115-2.17-0.174-3.28-0.0628-1.12-0.126-2.24-0.19-3.39-0.201-3.59-0.396-7.19-0.591-10.8-0.195-3.54-0.392-7.09-0.589-10.6-0.127-2.29-0.254-4.58-0.379-6.87-0.314-5.68-0.682-11.4-1.15-17-0.512-6.85-0.263-13.6 0.0586-20.5 0.384-9.22 0.681-18.4 0.525-27.6-0.062-4.9-0.062-4.9 1.04-7.1 0.141-1.68 0.226-3.37 0.281-5.05l0.113-3.06 0.105-3.21c0.0692-2.08 0.142-4.16 0.219-6.24 0.0303-0.925 0.0606-1.85 0.0918-2.8 0.188-2.63 0.647-5.07 1.19-7.65 0.176-1.44 0.331-2.88 0.465-4.33l0.236-2.43c0.156-1.65 0.31-3.3 0.461-4.95 0.48-4.88 1.27-9.54 2.39-14.3 0.533-2.39 0.814-4.74 1.01-7.17 0.32-3.65 0.823-7.2 1.44-10.8 0.126-1.44 0.251-2.87 0.375-4.31 0.33-3.1 0.918-5.76 2.01-8.67 2.38-6.92 3.4-14.1 4.63-21.3 1.12-6.19 2.55-11.8 5.1-17.5 1.17-2.83 1.73-5.66 2.34-8.65 1.05-4.8 2.48-9.5 3.87-14.2 0.495-1.68 0.987-3.36 1.48-5.04 0.89-3.04 1.79-6.08 2.7-9.12 0.284-0.975 0.569-1.95 0.862-2.95 1.51-5.02 3.23-9.58 5.68-14.2 1.74-3.57 2.84-7.36 4.02-11.2 1.56-5 3.08-9.37 5.94-13.8 0.519-1.26 1-2.53 1.44-3.81 1.77-4.92 4.15-9.46 6.55-14.1 1.17-2.43 2.15-4.9 3.14-7.41 2.24-5.44 4.89-10.6 7.7-15.7 4.06-7.49 7.61-15.2 11.2-23h2l0.188-2.06c0.939-3.39 2.46-5.4 4.55-8.18 1.75-2.43 2.97-5.05 4.26-7.75 2.05-3.77 4.16-7.29 6.69-10.8 2.41-3.05 2.41-3.05 3.31-6.25h2c0.251-0.871 0.503-1.74 0.762-2.64 1.3-3.52 2.87-6.06 5.05-9.11 0.383-0.541 0.766-1.08 1.16-1.64 1.33-1.88 2.68-3.74 4.03-5.61 0.538-0.746 1.08-1.49 1.63-2.26 2.28-3.16 4.56-6.32 6.85-9.47 0.528-0.727 1.06-1.45 1.6-2.2 0.502-0.691 1-1.38 1.52-2.09 1.28-1.81 2.47-3.64 3.66-5.51 0.574-0.813 1.15-1.63 1.74-2.46h2l0.684-2.15c1.61-3.49 3.73-5.71 6.38-8.48 3.71-3.74 3.71-3.74 5.94-8.38 1.62-1.71 3.29-3.38 5-5 2.05-1.98 2.05-1.98 3.84-4.31 2.83-3.53 5.89-6.84 8.94-10.2 2.16-2.44 4.2-4.95 6.22-7.5 1.62-1.81 1.62-1.81 3-3h2c0.165-0.681 0.33-1.36 0.5-2.06 1.87-3.66 4.29-5.52 7.42-8.12 1.91-1.67 3.48-3.36 5.08-5.32 2.72-3.32 5.79-5.98 9.06-8.75 1.85-1.67 3.37-3.38 4.94-5.32 2.59-3.13 5.39-5.31 8.69-7.66 2.81-2.16 5.36-4.54 7.94-6.96 5.43-5.07 11.1-9.67 17-14.2 2.93-2.26 5.77-4.61 8.61-6.98 9.45-7.79 19.6-14.8 29.8-21.6 1.24-0.926 2.47-1.86 3.69-2.81 3.99-3.02 8.15-5.68 12.4-8.33 3.06-1.94 6.06-3.95 9.05-5.98 4.14-2.77 8.3-5.32 12.7-7.67 2.34-1.29 4.61-2.67 6.88-4.08 5.22-3.17 10.6-5.84 16.1-8.51 2.83-1.43 5.49-2.97 8.2-4.61 10.7-6.03 21.8-11.3 33.1-16.1 2.56-1.12 5.1-2.3 7.64-3.48 5.96-2.72 12-5.11 18.1-7.51 2.37-0.94 4.73-1.89 7.09-2.85 27.2-11 27.2-11 35.9-12.5 2.55-0.655 4.85-1.73 7.25-2.79 3.18-1.28 6.46-2.04 9.78-2.83 0.984-0.241 0.984-0.241 1.99-0.486 3.51-0.853 7.04-1.65 10.6-2.42 4.62-1.02 9.18-2.23 13.8-3.47 7.04-1.89 14.1-3.55 21.2-4.98 2.56-0.462 2.56-0.462 4.59-1.58 1.83-0.182 3.66-0.322 5.5-0.438 4.74-0.36 9.23-1.03 13.9-2.02 7.83-1.6 15.7-2.65 23.7-3.29 2.01-0.149 2.01-0.149 3.93-1.25 2.85-0.313 5.7-0.51 8.57-0.719 2.38-0.0196 2.38-0.0196 3.43-1.28 3.16-0.0603 6.3-0.0203 9.45 0.0391 3.14 0.0367 5.54-0.0374 8.55-1.04 2.94-0.0687 5.86 0.00225 8.8 0.0625 3.17 0.0169 3.17 0.0169 6.13-0.558 5.44-0.803 10.9-0.647 16.4-0.637zm64.7 2.13v1h7v-1h-7zm-639 395 1 2zm-12 32 1 2zm-15 50 1 2zm-1 5 1 2zm-7 30 1 4zm-10 83 1 2z" fill="#FB5543"/>
<path transform="translate(834,490)" d="m0 0c1.02 3.07 1.07 4.99 1 8.19-0.0951 15.7 0.288 30.6 9.19 44.1 2.61 4.16 4.84 8.5 7.06 12.9 0.53 1.03 0.53 1.03 1.07 2.09 7.34 14.7 3.68 33.7 2.24 49.6-0.0674 0.747-0.135 1.49-0.204 2.26-1.86 20.4-1.86 20.4-3.36 21.9-0.345 2.47-0.607 4.89-0.812 7.38-0.0767 0.686-0.153 1.37-0.232 2.08-0.229 2.26-0.229 2.26 0.0449 5.55 2.75 2.92 5.67 3.88 9.64 4.24 7.69 0.18 14-0.982 21.3-3.46 3.21-0.807 4.97-0.768 8.09 0.223 1.81 1.81 1.47 4.72 1.72 7.19 0.101 1.83 0.101 1.83 1.28 2.81 0.0263 1.42 0.0461 2.83 0.0625 4.25 0.286 2.94 0.471 4.29 2.61 6.39 3.59 2.24 7.36 3.92 11.3 5.36 2.23 2.23 1.9 7 2.3 10 0.763 3.27 1.21 4.73 3.7 6.98 2.73 0.904 5.26 1.6 8.06 2.19 7.82 1.75 7.82 1.75 9.94 2.81v2h2c2.25 4.27 3.91 8.47 5.38 13.1 3.94 13.1 3.94 13.1 10.6 24.9v2c0.835 0.155 0.835 0.155 1.69 0.312 2.31 0.688 2.31 0.688 4.58 2.2 4.93 2.68 10.4 1.95 15.9 1.92 1.17 0.02 2.35 0.04 3.55 0.0605 11-0.00613 19.6-3.36 29.3-8.37 0.677-0.341 1.35-0.682 2.05-1.03 3.18-1.6 6.29-3.25 9.38-5.01 8.38-4.66 8.38-4.66 13.2-3.83 10.3 3.48 19 10.1 27.4 16.8 0.844 0.65 1.69 1.3 2.56 1.97 9.56 7.46 18.3 15.8 26.9 24.3 0.579 0.574 1.16 1.15 1.75 1.74 2.64 2.65 5.17 5.33 7.53 8.24 2.17 2.84 2.17 2.84 5.28 4.71-6.57 8.14-6.57 8.14-12 10-1.13 2.02-1.13 2.02-2 4-0.99 0.33-1.98 0.66-3 1-0.309 0.66-0.619 1.32-0.938 2-0.351 0.66-0.701 1.32-1.06 2-1.33 0.333-2.67 0.667-4 1-0.704 1.31-1.36 2.65-2 4-2.5 2.75-2.5 2.75-5 5h-2c-0.251 0.588-0.503 1.18-0.762 1.78-1.39 2.5-2.87 3.88-5.05 5.72-1.07 0.909-1.07 0.909-2.16 1.84-1.56 1.28-3.13 2.54-4.71 3.79-2.63 2.14-4.94 4.45-7.31 6.88-4.46 4.56-8.99 8.96-13.8 13.1-1.53 1.34-3.03 2.7-4.52 4.09-8.7 8.15-18.1 15.3-27.7 22.3-3.1 2.3-6.13 4.6-9.01 7.16-7.07 6.07-11.9 8.23-21.4 8.97-5.05 0.475-8.97 2.12-13.5 4.33-0.605 0.292-1.21 0.584-1.83 0.885-7.31 3.54-14.6 7.19-21.6 11.3-1.6 0.812-1.6 0.812-3.6 0.812v2c-0.638 0.182-1.28 0.364-1.93 0.551-0.826 0.251-1.65 0.503-2.5 0.762-0.824 0.244-1.65 0.487-2.5 0.738-0.682 0.313-1.36 0.626-2.07 0.949-0.33 0.99-0.66 1.98-1 3-2.64 1.45-5.27 2.73-8 4-1.7 0.856-3.41 1.71-5.11 2.58-2.95 1.49-5.92 2.96-8.89 4.42-1.19 0.594-1.19 0.594-2.41 1.2-6.6 3.12-13.6 4.94-20.6 6.8-1.08 0.291-2.17 0.583-3.29 0.883-4.35 1.13-8.61 2.19-13.1 2.68-3.53 0.303-3.53 0.303-6.41 1.37-4.55 1.51-9.18 2.35-13.9 3.29-2.97 0.696-5.6 1.44-8.34 2.78-0.887 2.04-0.887 2.04-1 4-5.23-0.402-7.55-1.05-11-5-3.22-1.07-4.05-0.936-7.19-0.0625-1.26 0.351-2.52 0.701-3.81 1.06-0.294-0.471-0.588-0.941-0.891-1.43-3.28-4.55-5.68-5.99-11.2-7.01-5.45-1.12-5.45-1.12-7.4-3.13-1.07-2.12-1.8-4.16-2.48-6.43-3.21-9.59-7.12-19.3-15-26-2.09-0.822-2.09-0.822-4.31-1.12-3.99-0.702-7.79-1.75-11.7-2.88-1.18-0.284-2.36-0.567-3.58-0.859-12.1-2.94-22-6.72-29.4-17.1-1.98-3.69-3.57-7.49-5.12-11.4-5.48-14-5.48-14-13.6-26.6-2.08-2.49-3.21-3.94-4.25-7.06h-2c-1.14-1.1-2.27-2.22-3.36-3.36-2.8-2.79-5.84-5.3-8.85-7.87-0.592-0.584-1.18-1.17-1.79-1.77v-2c-1.08-0.34-1.08-0.34-2.19-0.688-3.38-1.58-5.37-3.52-7.81-6.31v-2c-1.08-0.371-1.08-0.371-2.19-0.75-4.05-1.8-6.93-4.34-10-7.5-3.38-3.31-7.05-6.11-10.8-8.98-0.664-0.584-1.33-1.17-2.01-1.77v-2c-1.32-0.33-2.64-0.66-4-1v-2c-0.866-0.406-0.866-0.406-1.75-0.82-5.39-2.83-10-6.82-14.2-11.2-0.742-0.536-1.48-1.07-2.25-1.62-0.866-0.681-0.866-0.681-1.75-1.38v-2c-0.706-0.223-1.41-0.446-2.14-0.676-3.47-1.61-5.9-3.88-8.61-6.51-5.65-5.33-11.4-10.5-18.1-14.5-2.48-1.49-4.17-3.24-6.19-5.31-1.97-1.7-3.98-3.35-6-5 1.49-4.72 1.49-4.72 3.81-6 0.722-0.33 1.44-0.66 2.19-1 2.65-2.51 5.08-5.09 7.44-7.88 2.56-2.12 2.56-2.12 5.3-2.02 3.87 1.07 6.81 2.9 10.1 5.15 1.24 0.829 2.49 1.66 3.74 2.48 0.596 0.396 1.19 0.792 1.81 1.2 2.67 1.74 5.44 3.26 8.25 4.76 2.48 1.36 4.91 2.8 7.34 4.25 7.1 4.18 14.2 7.42 22.1 10.1 0.866 0.32 1.73 0.639 2.62 0.969 12.3 4.05 26.9 3.57 38.5-2 6.84-3.79 11.3-9.48 13.6-16.9 0.473-1.73 0.929-3.47 1.37-5.21 3.13-12.1 3.13-12.1 8.73-16.1 2.93-0.927 5.46-0.719 8.52-0.555 5.43 0.163 5.43 0.163 10.3-1.88 3.48-3.38 4.52-6.21 4.94-11 0.0748-0.799 0.15-1.6 0.227-2.42 0.0735-0.905 0.0735-0.905 0.148-1.83 0.664-0.11 1.33-0.219 2.01-0.332 6.93-1.22 6.93-1.22 13-4.67 2.2-3.3 2.45-5.12 2.94-9 2.29-16.2 2.29-16.2 5.06-19 5.42-0.935 9.52-0.796 15 0 2.85 0.228 5.7 0.319 8.56 0.375 0.729 0.0374 1.46 0.0748 2.21 0.113 4.09 0.0663 5.96-0.329 9.57-2.51 5.88-6.58 6.22-13.7 6.47-22.3 0.035-1.07 0.0699-2.13 0.106-3.23 0.23-9.66-0.491-18.9-1.92-28.5-0.276-1.86-0.276-1.86-0.558-3.76-1.85-12.4-3.7-24.7-6.08-37-1.97-12.4 6.58-24.7 13.4-34.5 1.69-2.48 2.94-5.1 4.23-7.8 0.842-1.61 1.7-3.21 2.56-4.81 0.621-1.15 0.621-1.15 1.25-2.33 1.18-1.86 1.18-1.86 3.18-2.86 1.02-1.99 2.01-3.99 3-6 0.835-1.45 1.69-2.89 2.56-4.31 0.621-1.02 0.621-1.02 1.25-2.05 1.18-1.64 1.18-1.64 3.18-2.64z" fill="#FB5543"/>
<path transform="translate(1342,1364)" d="m0 0c-0.308 3.25-0.622 6.5-0.938 9.75-0.087 0.92-0.174 1.84-0.264 2.79-0.087 0.889-0.174 1.78-0.264 2.7-0.0786 0.817-0.157 1.63-0.238 2.48-0.28 2.16-0.722 4.19-1.3 6.29-13 4.84-27.7 1.12-41-1v-4c9.62-5 19.4-9.61 29.3-14 1.66-0.739 1.66-0.739 3.34-1.49 1.04-0.456 2.08-0.912 3.14-1.38 0.93-0.41 1.86-0.82 2.82-1.24 2.38-0.883 2.38-0.883 5.38-0.883z" fill="#000002"/>
<path transform="translate(808,464)" d="m0 0c0.99 1.49 0.99 1.49 2 3-5.64 23.8-24 46.3-44.3 59.1-17.6 10.4-34.6 16.3-55.1 16.1-1.06 0.00773-2.12 0.0155-3.22 0.0234-1.02-0.00258-2.04-0.00516-3.09-0.00781-0.915-0.00226-1.83-0.00451-2.77-0.00684-2.6-0.271-4.25-0.942-6.48-2.26 1.07 0.058 2.14 0.116 3.24 0.176 18.3 0.663 38.1-2.07 54.8-10.2 1.08-0.513 2.16-1.03 3.27-1.55 19.8-10 33.7-26 43.7-45.4 0.37-0.688 0.74-1.38 1.12-2.09 2.85-5.43 4.88-11.1 6.88-16.9z" fill="#000002"/>
<path transform="translate(1444,753)" d="m0 0c6.76 5 11.2 11.4 15.8 18.3 1 1.48 2.02 2.94 3.04 4.4 10.7 15.8 20.1 36.2 22.1 55.3-2-1-2-1-3.3-4.73-0.489-1.63-0.973-3.26-1.45-4.9-5.93-19.4-13.8-37.3-26.2-53.4-1.47-1.97-2.92-3.95-4.38-5.94-0.647-0.875-1.29-1.75-1.96-2.65-1.44-2.09-2.61-4.11-3.66-6.41z" fill="#000002"/>
<path transform="translate(755,508)" d="m0 0 2 1c-12.7 10.6-12.7 10.6-20 14-0.66-0.33-1.32-0.66-2-1 1.02-0.675 2.05-1.35 3.11-2.05 1.36-0.901 2.72-1.8 4.08-2.7 0.674-0.443 1.35-0.887 2.04-1.34 3.74-2.48 7.32-5.04 10.8-7.91z" fill="#000002"/>
<path transform="translate(1488,857)" d="m0 0h1v30h-1v-30z" fill="#000002"/>
<path transform="translate(1485,835)" d="m0 0h1c1.19 5.38 2.29 10.5 2 16-2.35-3.52-2.38-5.51-2.62-9.69-0.0748-1.18-0.15-2.36-0.227-3.57-0.049-0.904-0.098-1.81-0.148-2.74z" fill="#180808"/>
<path transform="translate(757,518)" d="m0 0c0.66 0.33 1.32 0.66 2 1-1.65 1.65-3.3 3.3-5 5-0.66-0.33-1.32-0.66-2-1l5-5z" fill="#000002"/>
<path transform="translate(1444,695)" d="m0 0h11v1h-11v-1z" fill="#000002"/>
<path transform="translate(1475,691)" d="m0 0c-3.4 2.09-6.05 2.18-10 2v-1c3.41-0.778 6.51-1.1 10-1z" fill="#000002"/>
<path transform="translate(1495,682)" d="m0 0c0.66 0.33 1.32 0.66 2 1-0.99 0.66-1.98 1.32-3 2-0.99-0.33-1.98-0.66-3-1 1.88-1.06 1.88-1.06 4-2z" fill="#000002"/>
<path transform="translate(1436,696)" d="m0 0h7v1h-7v-1z" fill="#000002"/>
<path transform="translate(1486,686)" d="m0 0c0.99 0.33 1.98 0.66 3 1-1.65 0.33-3.3 0.66-5 1 0.66-0.66 1.32-1.32 2-2z" fill="#000002"/>
<path transform="translate(1500,679)" d="m0 0c0.33 0.66 0.66 1.32 1 2-1.32 0.33-2.64 0.66-4 1l3-3z" fill="#000002"/>
<path transform="translate(1511,671)" d="m0 0c0.66 0.33 1.32 0.66 2 1-1.98 0.99-1.98 0.99-4 2 0.66-0.99 1.32-1.98 2-3z" fill="#000002"/>
<path transform="translate(1088,621)" d="m0 0h1v6h-1v-6z" fill="#000002"/>
<path transform="translate(933,455)" d="m0 0h6v1h-6v-1z" fill="#000002"/>
<path transform="translate(927,454)" d="m0 0h5v1h-5v-1z" fill="#000002"/>
<path transform="translate(1487,852)" d="m0 0 1 4z" fill="#FC5644"/>
<path transform="translate(1458,786)" d="m0 0 1 4z" fill="#000002"/>
<path transform="translate(1457,780)" d="m0 0 1 4z" fill="#000002"/>
<path transform="translate(1456,694)" d="m0 0 4 1z" fill="#000002"/>
<path transform="translate(1461,693)" d="m0 0 4 1z" fill="#000002"/>
<path transform="translate(1506,675)" d="m0 0c0.66 0.33 1.32 0.66 2 1h-3c0.33-0.33 0.66-0.66 1-1z" fill="#000002"/>
<path transform="translate(166,651)" d="m0 0 1 4z" fill="#FC5644"/>
<path transform="translate(1087,629)" d="m0 0 1 4z" fill="#000002"/>
<path transform="translate(1050,530)" d="m0 0 2 1c-0.33 0.66-0.66 1.32-1 2-0.33-0.99-0.66-1.98-1-3z" fill="#000002"/>
<path transform="translate(750,524)" d="m0 0c0.66 0.33 1.32 0.66 2 1h-3l1-1z" fill="#000002"/>
<path transform="translate(1029,512)" d="m0 0c0.99 0.33 1.98 0.66 3 1h-3v-1z" fill="#000002"/>
<path transform="translate(896,90)" d="m0 0 4 1z" fill="#FC5644"/>
<path transform="translate(1475,690)" d="m0 0c3 1 3 1 3 1z" fill="#000002"/>
<path transform="translate(1478,689)" d="m0 0c3 1 3 1 3 1z" fill="#000002"/>
<path transform="translate(1481,688)" d="m0 0c3 1 3 1 3 1z" fill="#000002"/>
<path transform="translate(569,585)" d="m0 0h2c-0.33 0.66-0.66 1.32-1 2-0.33-0.66-0.66-1.32-1-2z" fill="#000002"/>
<path transform="translate(691,539)" d="m0 0c3 1 3 1 3 1z" fill="#000002"/>
<path transform="translate(723,527)" d="m0 0c3 1 3 1 3 1z" fill="#000002"/>
<path transform="translate(730,524)" d="m0 0c3 1 3 1 3 1z" fill="#000002"/>
<path transform="translate(759,516)" d="m0 0 2 1-2 1v-2z" fill="#000002"/>
<path transform="translate(951,101)" d="m0 0c3 1 3 1 3 1z" fill="#FC5644"/>
<path transform="translate(711,89)" d="m0 0c3 1 3 1 3 1z" fill="#FC5644"/>
<path transform="translate(1489,685)" d="m0 0 2 1z" fill="#000002"/>
<path transform="translate(737,532)" d="m0 0 2 1z" fill="#000002"/>
<path transform="translate(739,531)" d="m0 0 2 1z" fill="#000002"/>
<path transform="translate(741,530)" d="m0 0 2 1z" fill="#000002"/>
<path transform="translate(744,528)" d="m0 0 2 1z" fill="#000002"/>
<path transform="translate(719,528)" d="m0 0 2 1z" fill="#000002"/>
<path transform="translate(746,527)" d="m0 0 2 1z" fill="#000002"/>
<path transform="translate(726,526)" d="m0 0 2 1z" fill="#000002"/>
<path transform="translate(733,523)" d="m0 0 2 1z" fill="#000002"/>
<path transform="translate(909,451)" d="m0 0 2 1z" fill="#000002"/>
<path transform="translate(888,89)" d="m0 0 2 1z" fill="#FC5644"/>
</svg>
